<?xml version="1.0" encoding="UTF-8"?>
<!DOCTYPE svg PUBLIC "-//W3C//DTD SVG 1.1//EN" "http://www.w3.org/Graphics/SVG/1.1/DTD/svg11.dtd">
<!-- Creator: CorelDRAW 2020 (64-Bit) -->
<svg xmlns="http://www.w3.org/2000/svg" xml:space="preserve" width="71mm" height="71mm" version="1.1" style="shape-rendering:geometricPrecision; text-rendering:geometricPrecision; image-rendering:optimizeQuality; fill-rule:evenodd; clip-rule:evenodd"
viewBox="0 0 7100 7100"
 xmlns:xlink="http://www.w3.org/1999/xlink"
 xmlns:xodm="http://www.corel.com/coreldraw/odm/2003">
 <defs>
  <style type="text/css">
   <![CDATA[
    .fil1 {fill:#85846F}
    .fil0 {fill:#FCFED9}
   ]]>
  </style>
 </defs>
 <g id="Layer_x0020_1">
  <metadata id="CorelCorpID_0Corel-Layer"/>
  <circle class="fil0" cx="3550" cy="3550" r="3530.75"/>
  <path class="fil1" d="M6343.56 3863.93c-159.23,1448.86 -1461.6,2646.83 -3113.64,2476.55 -508,-52.38 -1097.78,-304.17 -1469.96,-624.86l-355.08 -341.26c-414.02,-518.69 -750.15,-1226.68 -649.84,-2144.19 159.29,-1457.17 1473.11,-2653.66 3127.22,-2474.79 1423.5,153.93 2640.38,1479.07 2461.3,3108.55zm-2319.13 243.04c312.77,-199.47 137.08,-169.04 641.63,-363.27 337.07,-129.73 395.81,-187.12 580.2,-392.69 303.16,-338.01 489.11,-930.82 447.16,-1517.68l-279.3 936.86c-36.12,66.7 -38.8,62.69 -84.88,98.28 -169.71,-510.38 -710.14,-1050.87 -1308.37,-1167.24l3.56 2405.74zm221.86 1216.28c544.02,-161.58 1137.28,-803.56 1204.59,-1473.64 -371.78,-2 -676.09,248.9 -875.56,451.99 -219.38,223.36 -323.76,606.31 -329.03,1021.65zm-1231.96 -3600.36c-248.04,83.9 -585.68,267.55 -768.86,448.75 -158.93,157.25 -237.53,215.7 -372.74,450.28 -73.83,128.12 -234.5,443.75 -141.17,578.11 55.53,79.96 134.36,150.75 203.27,198.12 466.25,320.54 1138.13,373.07 1428.48,991.1 48.81,103.84 70.08,176.22 95.86,302.25l77.89 312.91c1.74,-3.85 6.92,14.17 15.38,20.66l-1.71 -1988.42 -528.83 -3.15 -7.57 -1310.61zm-465.4 2582.66c-155.45,-207.51 -486.19,-410.1 -874.67,-460.98 -14.14,428.99 337.34,841.42 581,1103.87 152.21,163.94 393.69,270.08 598.9,374.9 121.82,-384.41 -148.21,-808.18 -305.23,-1017.79zm617.71 -4270.56c-1821.85,173.22 -3343.96,1848.6 -3126.63,3912.78 189.6,1800.85 1861.47,3348.4 3898.08,3110.58 658.06,-76.83 1379.28,-365.89 1844.03,-776.4 314.21,-277.6 157.28,-94.1 451.76,-447.37 268.49,-322.11 474.68,-633.38 649.37,-1121.13 165.91,-463.13 235.2,-1014.76 177.37,-1547.91 -198.82,-1833.05 -1816.19,-3328.14 -3893.98,-3130.55z"/>
 </g>
</svg>
